<svg id="Componente_1_3" data-name="Componente 1 – 3" xmlns="http://www.w3.org/2000/svg" xmlns:xlink="http://www.w3.org/1999/xlink" width="156.751" height="192.5" viewBox="0 0 156.751 192.5">
  <defs>
    <linearGradient id="linear-gradient" x1="0.5" y1="0.329" x2="0.5" y2="0.943" gradientUnits="objectBoundingBox">
      <stop offset="0.28" stop-color="#1eeb00"/>
      <stop offset="0.51" stop-color="#1ee700"/>
      <stop offset="0.73" stop-color="#1edb00"/>
      <stop offset="0.95" stop-color="#1ec800"/>
      <stop offset="1" stop-color="#1ec200"/>
    </linearGradient>
  </defs>
  <g id="Grupo_20662" data-name="Grupo 20662" transform="translate(0 156.545)">
    <path id="Trazado_27405" data-name="Trazado 27405" d="M116.692,138.372H104.115L93.905,121.5h-.148v16.868H83.4V107.3H93.757v10.653h.148l9.914-10.653h12.429l-11.985,11.985Z" transform="translate(40.059 -104.933)" fill="#004b40"/>
    <g id="Grupo_20661" data-name="Grupo 20661">
      <path id="Trazado_27406" data-name="Trazado 27406" d="M78.719,138.662V121.646c0-3.4-.888-6.51-4.587-6.51s-5.475,3.107-5.475,6.658v16.868H58.3V107.59h9.914V110.4a12.577,12.577,0,0,1,9.322-3.7c8.286,0,11.393,6.51,11.393,12.725v19.235Z" transform="translate(28.02 -105.222)" fill="#004b40"/>
      <g id="Grupo_20660" data-name="Grupo 20660">
        <path id="Trazado_27407" data-name="Trazado 27407" d="M47.3,137.808V109.4l9.766-3.7v35.955Z" transform="translate(22.744 -105.7)" fill="#004b40"/>
        <g id="Grupo_20659" data-name="Grupo 20659" transform="translate(0 1.479)">
          <path id="Trazado_27408" data-name="Trazado 27408" d="M37.864,139.7c-9.322,0-17.164-6.51-17.164-16.572S28.542,106.7,37.864,106.7s17.312,6.066,17.312,16.276S47.333,139.7,37.864,139.7Zm0-24.562c-4.735,0-7.25,4-7.25,7.99s2.515,7.99,7.4,7.99,7.4-4,7.4-7.99S42.747,115.134,37.864,115.134Z" transform="translate(9.986 -106.699)" fill="#004b40"/>
          <path id="Trazado_27409" data-name="Trazado 27409" d="M22.657,128.451a7.99,7.99,0,1,1,0-10.505l5.623-6.362a16.572,16.572,0,1,0,0,23.378Z" transform="translate(0.039 -106.7)" fill="#004b40"/>
        </g>
      </g>
    </g>
  </g>
  <g id="Grupo_20663" data-name="Grupo 20663" transform="translate(14)">
    <ellipse id="Elipse_1803" data-name="Elipse 1803" cx="11.689" cy="11.689" rx="11.689" ry="11.689" transform="translate(52.527 2.219)" fill="#fbb040"/>
    <path id="Trazado_27410" data-name="Trazado 27410" d="M57.461,27.421A13.761,13.761,0,1,1,71.221,13.661,13.761,13.761,0,0,1,57.461,27.421Zm0-23.378a9.618,9.618,0,1,0,9.618,9.618,9.618,9.618,0,0,0-9.618-9.618Z" transform="translate(6.755 0.1)" fill="#004b40"/>
    <path id="Trazado_27411" data-name="Trazado 27411" d="M42.176,114.158l-6.51,4.143-1.184-.888c-.592-.444-13.317-11.541-13.317-47.792a80.936,80.936,0,0,1,3.847-24.71C20.13,39.732,18.8,35,17.171,29.079L15.839,24.2a95.434,95.434,0,0,0-3.551-10.061L11.4,12.063l2.219-.74A37.287,37.287,0,0,1,25.161,9.4a33.884,33.884,0,0,1,22.934,9.026,76.645,76.645,0,0,1,49.716,0,33.884,33.884,0,0,1,22.934-8.878,37.287,37.287,0,0,1,11.541,1.924l2.219.74-.888,2.071a95.436,95.436,0,0,0-3.7,9.766l-1.332,4.883c-1.628,5.919-2.811,10.505-7.842,15.832a80.935,80.935,0,0,1,3.847,24.71c0,36.4-12.725,47.348-13.317,47.792l-1.184.888-6.51-4.143L97.81,118.3l-1.184-1.48a31.369,31.369,0,0,1-5.179-8.434,79.013,79.013,0,0,1-36.991,0,31.369,31.369,0,0,1-5.179,8.434l-1.184,1.48Z" transform="translate(-8.737 4.656)" fill="url(#linear-gradient)"/>
    <path id="Trazado_27412" data-name="Trazado 27412" d="M58.656,56.37c4.439,0,13.169-5.031,16.572-12.725S71.233,33.584,68.274,33.14a74.426,74.426,0,0,0-9.618-.74,74.426,74.426,0,0,0-9.618.74c-2.959.592-10.357,2.959-6.954,10.505S54.217,56.37,58.656,56.37Z" transform="translate(5.56 15.688)" fill="#afff6a"/>
    <path id="Trazado_27413" data-name="Trazado 27413" d="M83.73,42.771a75.462,75.462,0,0,0-10.061-.74,75.313,75.313,0,0,0-9.914.74c-1.924.3-6.658,1.628-8.582,5.327a8.878,8.878,0,0,0,.148,7.99C59.168,64.67,68.637,70,73.816,70s14.5-5.327,18.5-13.909a8.878,8.878,0,0,0,.148-7.99C90.388,44.4,85.653,43.215,83.73,42.771ZM88.464,54.46C85.209,61.563,77.071,66,73.816,66S62.275,61.711,59.168,54.46a5.031,5.031,0,0,1-.3-4.439c.888-1.776,3.551-2.811,5.771-3.255a72.647,72.647,0,0,1,9.322-.74,72.8,72.8,0,0,1,9.322.74c2.219.444,4.883,1.48,5.771,3.255a5.031,5.031,0,0,1-.592,4.587Zm45.277-44.389A39.21,39.21,0,0,0,121.608,8a35.955,35.955,0,0,0-23.526,8.878,78.716,78.716,0,0,0-48.68,0,35.955,35.955,0,0,0-23.378-8.73,39.21,39.21,0,0,0-12.133,2.071L9.6,11.551l1.924,4.143a93.366,93.366,0,0,1,3.551,9.618l1.332,4.883c1.48,5.623,2.811,10.505,7.546,15.684A83.008,83.008,0,0,0,20.4,70c0,15.388,2.219,28.261,6.658,38.174s6.954,10.8,7.4,11.245l2.219,1.924,2.515-1.628,4-2.515,3.107,2.367,2.959,2.219,2.367-2.811a34.919,34.919,0,0,0,4.883-7.4,80.936,80.936,0,0,0,34.475,0,34.92,34.92,0,0,0,4.883,7.4l2.515,2.959,2.959-2.219,3.107-2.367,3.995,2.515,2.515,1.628,2.219-1.924c.444-.3,3.995-3.4,7.4-11.245s6.658-22.786,6.658-38.174a83.008,83.008,0,0,0-3.551-24.118c4.587-5.327,5.919-10.209,7.546-15.684l1.332-4.883a93.364,93.364,0,0,1,3.551-9.618l1.924-4.143Zm-6.954,13.317c-.592,1.776-1.036,3.551-1.48,5.031-1.332,5.031-2.367,8.582-5.475,12.429a67.175,67.175,0,0,0-7.1-13.909c.888-1.48,3.4-4.439,9.174-7.25l-1.776-3.7c-9.47,4.439-11.689,10.061-11.689,10.357L108,27.383l.74.888c.148.148,12.429,16.276,12.429,41.578,0,28.261-7.99,40.394-10.8,43.649l-6.214-3.847-4.883,3.7a19.679,19.679,0,0,1-3.255-5.179l5.031-1.628L99.71,102.7a75.165,75.165,0,0,1-51.935,0l-1.332,3.847,5.031,1.628a19.679,19.679,0,0,1-3.255,5.327l-4.883-3.7-6.214,3.995c-2.811-3.4-10.8-15.24-10.8-43.649,0-25.154,12.281-41.282,12.429-41.578l.74-.888-.444-1.036c-.148-.3-2.219-5.919-11.689-10.357l-1.776,3.7c5.771,2.663,8.286,5.771,9.174,7.25a67.176,67.176,0,0,0-7.1,13.909c-3.107-3.847-4.143-7.4-5.475-12.429-.444-1.628-.888-3.255-1.48-5.031s-2.219-6.362-2.959-8.138a29.593,29.593,0,0,1,29.149,7.546l.888,1.036,1.332-.444a72.354,72.354,0,0,1,49.272,0l1.332.444.888-1.036A29.593,29.593,0,0,1,129.746,15.4c-.74,1.776-1.924,4.735-2.959,8.138ZM71.6,51.649v1.776a3.107,3.107,0,1,1-6.214,0V51.649a3.107,3.107,0,0,1,6.214,0ZM53.841,41.736A4.439,4.439,0,1,1,49.4,37.3,4.439,4.439,0,0,1,53.841,41.736ZM82.1,51.649v1.776a3.107,3.107,0,0,1-6.214,0V51.649a3.107,3.107,0,0,1,6.214,0Zm20.567-9.914A4.439,4.439,0,1,1,98.23,37.3,4.439,4.439,0,0,1,102.669,41.736Z" transform="translate(-9.6 3.985)" fill="#004b40"/>
  </g>
</svg>
