<svg id="marrano_regalo" data-name="marrano regalo" xmlns="http://www.w3.org/2000/svg" width="101.348" height="80" viewBox="0 0 101.348 80">
  <g id="Grupo_6222" data-name="Grupo 6222" transform="translate(0 16.334)">
    <g id="Cortadp" transform="translate(35.726 15.739)">
      <g id="Grupo_7492" data-name="Grupo 7492" transform="translate(-22.986 -9.134)">
        <path id="Trazado_13609" data-name="Trazado 13609" d="M52.344,9.376c-.266.653-.653,1.694-1.04,2.9-.194.653-.363,1.234-.508,1.815a10.877,10.877,0,0,1-1.936,4.452,23.93,23.93,0,0,0-2.589-4.96,7.66,7.66,0,0,1,3.266-2.565l-.6-1.307c-3.412,1.6-4.162,3.629-4.186,3.7l-.121.363.242.315a24.891,24.891,0,0,1,4.186,10.985H15.615a25.749,25.749,0,0,1,4.162-10.985l.242-.315-.145-.363c-.024-.1-.774-2.105-4.186-3.7l-.629,1.307a7.66,7.66,0,0,1,3.266,2.565,23.712,23.712,0,0,0-2.541,4.96,10.738,10.738,0,0,1-1.936-4.452c-.145-.581-.315-1.161-.508-1.815-.363-1.21-.774-2.25-1.04-2.9A10.572,10.572,0,0,1,22.7,12.11l.339.387.46-.169A25.632,25.632,0,0,1,41.117,12.3l.46.169.339-.363A10.6,10.6,0,0,1,52.344,9.376Z" transform="translate(-9.324 -6.811)" fill="#1eeb00"/>
        <g id="Grupo_7491" data-name="Grupo 7491">
          <g id="Grupo_7490" data-name="Grupo 7490" transform="translate(16.023 12.146)">
            <path id="Trazado_13610" data-name="Trazado 13610" d="M81.382,57.216a6.968,6.968,0,0,1-.823,1.379H70.348a6.969,6.969,0,0,1-.823-1.379c-1.21-2.71,1.428-3.581,2.492-3.775a24.515,24.515,0,0,1,6.872,0C79.954,53.636,82.616,54.507,81.382,57.216Z" transform="translate(-68.49 -52.474)" fill="#7fff5d"/>
            <path id="Trazado_13611" data-name="Trazado 13611" d="M79.862,52.378a4.377,4.377,0,0,0-3.1-1.911,24.061,24.061,0,0,0-7.138,0,4.377,4.377,0,0,0-3.1,1.911,3.136,3.136,0,0,0,.073,2.855,7.671,7.671,0,0,0,.581,1.065H69a6.63,6.63,0,0,1-1.089-1.67,1.815,1.815,0,0,1-.121-1.6,3.73,3.73,0,0,1,2.057-1.161,22.828,22.828,0,0,1,6.63,0,3.04,3.04,0,0,1,2.057,1.161c.339.629.169.944-.121,1.6a6.63,6.63,0,0,1-1.089,1.67h1.839a7.694,7.694,0,0,0,.581-1.065A3.08,3.08,0,0,0,79.862,52.378Z" transform="translate(-66.221 -50.2)" fill="#004a3d"/>
          </g>
          <path id="Trazado_13612" data-name="Trazado 13612" d="M45.972,1.21l-.653,1.476A33.122,33.122,0,0,0,44.06,6.122c-.194.629-.339,1.186-.508,1.742A12.228,12.228,0,0,1,40.867,13.5a29.566,29.566,0,0,1,1.016,4.767h-2.2A25.749,25.749,0,0,0,35.519,7.283l-.242-.315.121-.363c.024-.1.8-2.105,4.186-3.7l.629,1.307a7.49,7.49,0,0,0-3.266,2.565,23.93,23.93,0,0,1,2.565,4.96,10.738,10.738,0,0,0,1.936-4.452c.145-.581.315-1.161.508-1.815.363-1.21.774-2.25,1.04-2.9A10.544,10.544,0,0,0,32.592,5.3l-.339.363-.46-.169a25.067,25.067,0,0,0-8.807-1.549,25.067,25.067,0,0,0-8.831,1.549l-.46.169-.339-.387a10.6,10.6,0,0,0-10.4-2.734c.266.653.677,1.694,1.04,2.9.194.653.363,1.234.508,1.815a10.877,10.877,0,0,0,1.936,4.452A23.712,23.712,0,0,1,9.025,6.775,7.837,7.837,0,0,0,5.759,4.21l.6-1.307c3.412,1.6,4.162,3.629,4.186,3.7l.145.363-.242.315A24.872,24.872,0,0,0,6.291,18.268h-2.2A29.688,29.688,0,0,1,5.105,13.5,12.474,12.474,0,0,1,2.42,7.864c-.145-.557-.315-1.113-.484-1.742A33.1,33.1,0,0,0,.653,2.686L0,1.21,1.549.726A14.009,14.009,0,0,1,5.9,0a12.9,12.9,0,0,1,8.372,3.145,28.188,28.188,0,0,1,17.421,0A12.9,12.9,0,0,1,40.092,0a14.009,14.009,0,0,1,4.355.726Z" transform="translate(0 0)" fill="#004b40"/>
        </g>
        <rect id="Rectángulo_6418" data-name="Rectángulo 6418" width="2.226" height="2.877" rx="1.113" transform="translate(19.986 14.445)" fill="#004a3d"/>
        <ellipse id="Elipse_999" data-name="Elipse 999" cx="1.597" cy="1.597" rx="1.597" ry="1.597" transform="translate(12.654 10.404)" fill="#004a3d"/>
        <rect id="Rectángulo_6419" data-name="Rectángulo 6419" width="2.226" height="2.877" rx="1.113" transform="translate(25.986 17.324) rotate(180)" fill="#004a3d"/>
        <ellipse id="Elipse_1000" data-name="Elipse 1000" cx="1.597" cy="1.597" rx="1.597" ry="1.597" transform="translate(30.124 10.404)" fill="#004a3d"/>
      </g>
    </g>
    <g id="Grupo_6201" data-name="Grupo 6201" transform="translate(0 0)">
      <ellipse id="Elipse_201" data-name="Elipse 201" cx="45.692" cy="3.53" rx="45.692" ry="3.53" transform="translate(0 56.606)" fill="#191e20" opacity="0.252"/>
      <path id="Trazado_2350" data-name="Trazado 2350" d="M3403.794,1045.221v33.9h19v-24.558h-.1l.154-.126.067-.057.108-.093.071-.062.1-.091.072-.066.1-.092.07-.068c.032-.031.062-.063.092-.094l.066-.069c.031-.033.062-.067.092-.1l.06-.067c.033-.038.065-.077.1-.115l.048-.057c.047-.059.093-.118.137-.178.021.01.04.022.06.033l.019.012.039.025.021.015.034.026.02.016.034.029.018.016.036.034.014.013.047.049h0c.033.036.065.073.1.111l0,0,.043.054,0,0c.281.367.486.8.82.9a.519.519,0,0,0,.254.008l.031-.008c.515-.126.688-.694,1.058-1.138l0,0,.039-.045.008-.009.038-.041.011-.012.037-.036.014-.014.037-.033.017-.015.037-.031.019-.015.042-.031.018-.013q.03-.021.063-.041c.26.5.26,1.487,1.039,1.345.693-.071.953-1.345,1.472-1.274a.9.9,0,0,1,.11.025l.033.011c.024.008.048.016.071.026l.035.015c.023.01.045.022.066.034l.03.016c.03.018.059.037.087.058l.006,0c.028.02.054.042.08.065l.028.026c.018.016.036.033.053.051l.03.031.049.054.028.032c.02.023.039.046.057.069l.039.05.044.057.042.058.024.032a7.164,7.164,0,0,0,.529.693h-.285v24.558H3448.6v-33.547l-2.217-.353Z" transform="translate(-3391.977 -1020.661)" fill="#7fff5d"/>
      <path id="Trazado_2351" data-name="Trazado 2351" d="M3868.2,1057c.026.05.056.1.086.146l3.577-1.556-2.9-4.46c-3.734,1.562-6.486,3.014-6.486,3.014l1.782-4.212-1.886-.3v33.547h5.083v-25.3A7.161,7.161,0,0,0,3868.2,1057Z" transform="translate(-3805.817 -1024.723)" fill="#00a905"/>
      <path id="Trazado_2352" data-name="Trazado 2352" d="M3606.23,1144.8c-.084-.115-.164-.231-.244-.341l-.023-.032-.043-.058-.044-.057-.039-.05-.057-.069-.028-.032-.049-.054-.03-.031-.053-.051-.028-.026c-.026-.023-.052-.045-.08-.065l-.006,0c-.028-.021-.057-.04-.087-.058l-.03-.016c-.021-.012-.043-.024-.066-.034l-.034-.016-.072-.026-.033-.011a.92.92,0,0,0-.11-.025c-.52-.071-.78,1.2-1.473,1.274-.78.142-.78-.849-1.039-1.345l-.063.041-.018.013-.041.03-.019.015-.038.031-.017.015-.037.033-.014.014-.037.037-.011.012-.038.041-.007.009-.04.046,0,0c-.37.444-.543,1.012-1.058,1.138l-.031.008a.522.522,0,0,1-.253-.008c-.334-.1-.539-.53-.82-.9l0,0-.042-.054,0,0c-.031-.038-.062-.075-.1-.111h0l-.047-.049-.014-.013-.036-.034-.018-.016-.034-.029-.02-.016-.035-.026-.021-.015-.039-.025-.019-.012c-.019-.012-.039-.023-.059-.033-.044.06-.091.12-.137.178l-.048.057c-.032.039-.064.077-.1.115l-.06.067c-.031.034-.06.068-.092.1l-.067.069-.092.094-.07.068c-.032.031-.063.061-.1.092l-.072.066-.1.091-.071.062-.108.093-.068.057-.052.043v24.641h7.928V1144.8Z" transform="translate(-3567.49 -1111.253)" fill="#007e6b"/>
      <path id="Trazado_2353" data-name="Trazado 2353" d="M3917.709,1145.877c-.217-.208-.156-.41.02-.606v-.909c-.537,0-1.053.04-1.353-.231-.478-.433.664-1.091.721-1.757-.108,0-.215-.012-.321-.021a7.291,7.291,0,0,1-.677.894,5.562,5.562,0,0,0-.83-1.145l-.1-.025.068-.03c-.031-.047-.06-.1-.086-.146a7.154,7.154,0,0,1-.747.88v25.3h3.329V1145.9Z" transform="translate(-3852.764 -1109.621)" fill="#004b40"/>
      <path id="Trazado_2354" data-name="Trazado 2354" d="M3883.254,867.775l3.006,5.638-4.118-7.738h0l-4.734-8.9-15.476,8.236,3.5,6.583,3.883-2.028C3879.831,864.081,3883.254,867.775,3883.254,867.775Z" transform="translate(-3812.876 -856.779)" fill="#7fff5d"/>
      <path id="Trazado_2355" data-name="Trazado 2355" d="M4076.278,1137.932l.005.009-.667-1.253.006.013-2.572-4.834h0l-.11-.208h0l-.316-.593,3,5.645s1.151,4.9-9.273,10.556l-3.851,2.088,2.6,4.9,15.476-8.236Z" transform="translate(-3993.967 -1104.536)" fill="#7fff5d"/>
      <path id="Trazado_2356" data-name="Trazado 2356" d="M4013.971,1113.4l-.84-1.579-15.476,8.236,3.205,6.022C4006.529,1122.941,4013.769,1118.045,4013.971,1113.4Z" transform="translate(-3935.344 -1087.092)" fill="#7fff5d"/>
      <path id="Trazado_2357" data-name="Trazado 2357" d="M3948.206,1022.922l-.547-1.029c-3.969-2.428-12.074.841-17.841,3.792l2.912,5.472Z" transform="translate(-3874.125 -1005.108)" fill="#7fff5d"/>
      <path id="Trazado_2358" data-name="Trazado 2358" d="M4139.516,1330.81l-15.476,8.236,1.832,3.442,15.476-8.236-2.9-5.451h0Z" transform="translate(-4049.479 -1283.077)" fill="#01a925"/>
      <rect id="Rectángulo_1997" data-name="Rectángulo 1997" width="17.531" height="3.953" transform="translate(71.136 49.64) rotate(-28.02)" fill="#01a925"/>
      <path id="Trazado_2359" data-name="Trazado 2359" d="M4096.91,1320.172h0l-.5-.937-15.476,8.236-2.944,1.567a8.6,8.6,0,0,0,1.305.154c-.415.516-.553,1.18-1.008,1.619a8.186,8.186,0,0,0,2.177.022,2.764,2.764,0,0,1-.538.956l2.575-1.37,15.477-8.236Z" transform="translate(-4007.942 -1274.448)" fill="#004b40"/>
      <path id="Trazado_2360" data-name="Trazado 2360" d="M4212.787,1133.139c-3.346-5.472-19.137-6.4-19.137-6.4l0,0a6.42,6.42,0,0,1,.577,1.765c.052.032.083.052.083.052s6.967,1.875,9.608,6.115-4.74,7.7-9.333-.635l-.005-.009,4.3,8.082,1.857,3.49.5.937h0C4208.716,1149.707,4216.131,1138.611,4212.787,1133.139Z" transform="translate(-4112.264 -1100.607)" fill="#007e6b"/>
      <path id="Trazado_2361" data-name="Trazado 2361" d="M4172.086,1142.805l-1.9-3.563h0l2.572,4.834-.007-.013c-.242-.473-.447-.9-.622-1.286Z" transform="translate(-4091.05 -1111.81)" fill="#ffce00"/>
      <path id="Trazado_2362" data-name="Trazado 2362" d="M4151.748,1097.835c-1.021-1.02-2.232-1.454-3.129-1.005l-.037.018,1.527,2.87h0v0l.478.9.11.208,1.9,3.563.047-.028c.833-.48,1.153-1.649.932-2.994a6.432,6.432,0,0,0-.576-1.765c-.035-.07-.07-.14-.108-.21h0A6.542,6.542,0,0,0,4151.748,1097.835Z" transform="translate(-4071.558 -1073.369)" fill="#e1fecb"/>
      <path id="Trazado_2363" data-name="Trazado 2363" d="M3865.932,913.6l-3-5.645.315.593h0l-.478-.9,0,0h0l-1.527-2.87.037-.018c-.187-.31-.385-.652-.6-1.032l-.667-1.253c-4.347-8.466,2.647-12.654,4.688-8.1s-.3,11.385-.3,11.385h0a6.573,6.573,0,0,1,1.142,1.559h0s8.053-13.615,5.383-19.447-16.015-5.878-17.569,2.1h0l4.118,7.738-3.006-5.638s-3.424-3.694-13.936,1.8l-3.883,2.028-6.629,3.462.947.184,2.223.432h0l1.892.368-1.787,5.168s2.759-1.782,6.5-3.7c5.767-2.951,13.872-6.221,17.841-3.792l.547,1.029-15.476,8.236-3.588,1.909-.068.036.1.031a8.325,8.325,0,0,0,1.51.308c.107.011.214.02.322.025-.057.818-1.2,1.624-.722,2.156.3.332.818.28,1.356.284a2.251,2.251,0,0,1,.948.163c-.241.3-.7.619-.948.952a.542.542,0,0,0-.019.743l.019.024c.429.533,1.889.052,2.055.545.157.523-.246,1.045-.6,1.632l1.725-.918,1.64-.873,15.476-8.236.84,1.579c-.2,4.648-7.442,9.544-13.111,12.679-1.9,1.05-3.622,1.9-4.845,2.482-1.147.544-1.855.847-1.855.847l1.855.493,3.429.911-2.01,4.748,6.574-3.565,3.85-2.088C3867.083,918.508,3865.932,913.6,3865.932,913.6Z" transform="translate(-3784.277 -881.083)" fill="#007e6b"/>
    </g>
  </g>
  <g id="Grupo_6226" data-name="Grupo 6226" transform="translate(2.765)">
    <path id="Trazado_2396" data-name="Trazado 2396" d="M3540.432,983.072l-.937-1.624-.938-1.624-.937,1.624-.938,1.624h3.751Z" transform="translate(-3517.354 -951.628)" fill="#7bba00"/>
    <path id="Trazado_2397" data-name="Trazado 2397" d="M3740.513,930.9l-1.616.951-1.616.951,1.632.924,1.632.924-.016-1.875Z" transform="translate(-3695.794 -908.107)" fill="#7bba00"/>
    <path id="Trazado_2398" data-name="Trazado 2398" d="M3669.152,880.725l-1.013-1.578-1.013-1.578-.861,1.666-.86,1.666,1.873-.088Z" transform="translate(-3631.858 -860.669)" fill="#7bba00"/>
    <path id="Trazado_2399" data-name="Trazado 2399" d="M3412.152,794.994l1.561-1.04,1.561-1.04-1.681-.832-1.681-.832.12,1.872Z" transform="translate(-3406.367 -783.887)" fill="#7bba00"/>
    <path id="Trazado_2400" data-name="Trazado 2400" d="M3826.294,784.922l.578-1.784.578-1.784-1.834.392-1.834.392,1.256,1.392Z" transform="translate(-3772.739 -775.083)" fill="#7bba00"/>
    <path id="Trazado_2401" data-name="Trazado 2401" d="M3542.422,763.535l.359,1.2.731-1.013,1.249.028-.737-1.008.413-1.179-1.187.39-.994-.757,0,1.249-1.027.711Z" transform="translate(-3521.402 -757.149)" fill="#ffce00"/>
    <path id="Trazado_2402" data-name="Trazado 2402" d="M3794.3,879.73l.781.9.24-1.168,1.1-.464-1.036-.59-.1-1.188-.881.8-1.161-.27.492,1.086-.616,1.021Z" transform="translate(-3745.461 -860.361)" fill="#ffce00"/>
    <path id="Trazado_2403" data-name="Trazado 2403" d="M3847.076,985.48l-.581.963,1.118-.125.736.85.227-1.1,1.036-.438-.977-.556-.1-1.121-.831.758-1.1-.255Z" transform="translate(-3792.943 -955.301)" fill="#ffce00"/>
    <path id="Trazado_2404" data-name="Trazado 2404" d="M3641.552,973.085l.857.989.264-1.282,1.206-.509-1.138-.647-.112-1.3-.967.882-1.275-.3.54,1.193-.676,1.121Z" transform="translate(-3609.482 -943.185)" fill="#ffce00"/>
    <path id="Trazado_2405" data-name="Trazado 2405" d="M3414.381,935.864l.966,1.116.3-1.446,1.36-.574-1.283-.73-.126-1.471-1.09.995-1.438-.334.609,1.344-.762,1.264Z" transform="translate(-3407.259 -909.763)" fill="#ffce00"/>
    <path id="Trazado_2406" data-name="Trazado 2406" d="M3933.371,842.614l.856.988.263-1.28,1.2-.509-1.136-.646-.111-1.3-.965.881-1.273-.3.539,1.19-.675,1.119Z" transform="translate(-3869.067 -827.13)" fill="#ffce00"/>
    <path id="Trazado_2407" data-name="Trazado 2407" d="M3690.053,727.1l.781.9.24-1.168,1.1-.464-1.037-.59-.1-1.188-.881.8-1.161-.27.492,1.086-.616,1.021Z" transform="translate(-3652.729 -724.588)" fill="#ffce00"/>
    <path id="Trazado_2408" data-name="Trazado 2408" d="M3453.889,765.384c.089.1.19.226.314.356l.188.221c.032.039.067.077.1.116l.1.125c.144.166.292.35.452.541.076.1.158.2.239.3s.163.207.246.312.164.217.249.325.165.224.25.337c.164.229.335.459.5.7.083.117.167.234.245.353l.24.354c.04.058.079.118.116.177l.118.174.226.346.813,1.263.333.512c.1.155.189.288.261.4s.134.2.173.26l.063.092.066-.019s-.039-.146-.122-.4-.207-.6-.384-1.018-.4-.89-.667-1.387c-.134-.248-.278-.5-.433-.754s-.316-.505-.489-.752-.355-.485-.54-.717l-.281-.338-.286-.321-.286-.3-.284-.279c-.189-.176-.37-.341-.544-.484s-.339-.268-.484-.38-.28-.2-.39-.271l-.348-.222-.036.058s.024.031.071.087S3453.8,765.288,3453.889,765.384Z" transform="translate(-3443.461 -760.54)" fill="#ffce00"/>
    <path id="Trazado_2409" data-name="Trazado 2409" d="M3564.485,893.508l-.1-.118-.195-.216c-.128-.13-.238-.246-.332-.338l-.3-.282-.02.022.069.084c.046.054.11.136.2.234l.294.367.173.231.094.123.095.133c.131.179.262.38.4.589l.208.329c.067.115.138.23.21.347l.208.365c.065.126.133.252.2.379.134.256.265.519.385.788s.245.535.354.8l.161.4c.051.133.1.263.15.394.093.261.186.512.266.754s.155.471.221.684l.175.584.127.454.079.294.026.1.029,0a12.713,12.713,0,0,0-.263-1.475c-.1-.438-.239-.944-.415-1.479-.088-.267-.186-.54-.294-.815s-.224-.551-.35-.824-.263-.539-.4-.8l-.216-.382-.224-.365-.227-.346-.229-.324c-.155-.206-.3-.4-.448-.571Z" transform="translate(-3541.24 -873.999)" fill="#ffce00"/>
    <path id="Trazado_2410" data-name="Trazado 2410" d="M3366.937,963.734c.192.2.381.39.553.577s.335.365.483.532l.4.46.3.362.193.236.067.085.025-.015a12.755,12.755,0,0,0-.848-1.235c-.272-.358-.608-.762-.987-1.176-.19-.207-.392-.416-.6-.622s-.431-.41-.658-.606-.462-.383-.7-.562l-.354-.259-.354-.241-.35-.221-.342-.2c-.226-.124-.441-.24-.644-.335l-.148-.073-.145-.064-.266-.117c-.171-.066-.318-.126-.441-.171l-.39-.133-.009.028.1.048c.063.031.156.079.274.133l.419.213.253.139.137.074.141.082c.193.109.4.238.612.369l.325.214c.108.077.221.152.334.23l.34.247c.111.088.225.175.341.262.227.179.456.364.676.559s.444.387.654.587l.312.3C3366.739,963.537,3366.841,963.635,3366.937,963.734Z" transform="translate(-3361.724 -933.955)" fill="#ffce00"/>
    <path id="Trazado_2411" data-name="Trazado 2411" d="M3609.467,753.654c.07.111.148.25.246.4l.143.25c.024.044.051.088.079.134l.078.143c.109.193.215.407.333.629l.169.348c.053.121.113.242.171.366l.167.382q.077.2.162.4c.107.267.212.539.3.817s.193.552.277.828c.022.069.042.138.061.207l.064.2c.04.136.08.27.116.4.069.267.143.523.2.77s.116.481.169.7l.134.594.1.462c.027.129.048.23.063.3l.021.106h.039a12.662,12.662,0,0,0-.121-1.494c-.058-.446-.148-.964-.271-1.512-.063-.274-.133-.556-.215-.84s-.17-.571-.27-.854-.212-.562-.327-.834l-.179-.4-.188-.385-.194-.366-.2-.344c-.135-.22-.264-.427-.393-.611l-.093-.137-.094-.127-.173-.234c-.115-.142-.213-.267-.3-.367l-.272-.309-.029.027.057.093C3609.343,753.455,3609.395,753.546,3609.467,753.654Z" transform="translate(-3581.904 -750.107)" fill="#ffce00"/>
    <path id="Trazado_2412" data-name="Trazado 2412" d="M3737.038,812.845s.042-.142.132-.388.227-.592.405-1,.407-.881.676-1.371c.135-.245.28-.495.436-.744s.319-.5.492-.741.347-.484.528-.715l.275-.338.28-.32.28-.3.278-.279c.186-.176.363-.341.534-.484l.125-.107.122-.1.225-.182c.146-.107.272-.2.379-.279l.34-.23-.036-.058s-.038.009-.108.031-.174.052-.3.1-.281.112-.453.194-.366.179-.563.305c-.1.062-.2.126-.308.2s-.209.149-.318.229-.212.171-.323.26-.212.191-.321.289a8.84,8.84,0,0,0-.623.655c-.2.233-.391.481-.572.736s-.346.518-.5.786-.287.535-.408.8-.223.526-.311.777c-.043.126-.084.249-.121.369s-.07.236-.1.349c-.059.225-.1.435-.13.622s-.052.351-.064.487-.016.245-.019.318,0,.114,0,.114Z" transform="translate(-3695.518 -796.302)" fill="#ffce00"/>
    <path id="Trazado_2413" data-name="Trazado 2413" d="M3861.32,802.234c.269-.359.6-.764.977-1.179.188-.207.388-.417.6-.623s.427-.411.651-.608.452-.39.682-.573l.347-.265.348-.247.344-.227.337-.207c.222-.128.433-.247.634-.347l.147-.075.142-.066.263-.122c.169-.069.314-.132.436-.179l.386-.141-.012-.037-.107.02c-.07.014-.174.03-.3.059s-.287.071-.466.124-.38.117-.59.209c-.106.044-.219.085-.332.137s-.228.107-.347.165l-.359.189c-.121.067-.241.143-.364.216l-.368.238c-.122.084-.245.169-.365.261-.239.184-.479.376-.71.577q-.171.154-.335.313c-.11.1-.217.213-.323.32-.213.212-.4.441-.588.659s-.35.44-.5.654q-.115.159-.218.313c-.066.1-.131.2-.19.3-.122.193-.223.377-.31.54s-.157.31-.213.431-.094.219-.12.285l-.039.1.035.019A12.611,12.611,0,0,1,3861.32,802.234Z" transform="translate(-3805.355 -789.301)" fill="#ffce00"/>
    <path id="Trazado_2414" data-name="Trazado 2414" d="M3776.561,947.061c-.068.1-.135.2-.2.3-.125.189-.23.37-.322.529s-.166.3-.225.421-.1.214-.13.279-.043.1-.043.1l.026.014a12.672,12.672,0,0,1,.836-1.238c.269-.359.6-.765.976-1.18.189-.207.388-.417.6-.624s.427-.412.652-.609.452-.39.683-.573l.348-.265.348-.246.345-.227.337-.206c.223-.128.434-.247.635-.347l.146-.075.142-.066.264-.122c.168-.069.314-.132.436-.179l.386-.141-.009-.028-.105.024c-.069.016-.171.037-.3.07s-.282.081-.459.137-.374.127-.581.222c-.1.046-.216.089-.326.143s-.225.11-.342.17l-.354.193c-.12.068-.238.144-.36.219l-.364.24c-.12.085-.242.17-.361.262-.238.184-.475.375-.7.576-.113.1-.225.205-.334.311s-.217.211-.322.318c-.212.211-.4.436-.59.651s-.354.434-.508.644C3776.7,946.858,3776.631,946.961,3776.561,947.061Z" transform="translate(-3729.92 -918.494)" fill="#ffce00"/>
  </g>
</svg>
