<svg id="Oink" xmlns="http://www.w3.org/2000/svg" xmlns:xlink="http://www.w3.org/1999/xlink" width="72.345" height="64" viewBox="0 0 72.345 64">
  <defs>
    <linearGradient id="linear-gradient" x1="6.802" y1="0.328" x2="6.802" y2="0.942" gradientUnits="objectBoundingBox">
      <stop offset="0.279" stop-color="#1eeb00"/>
      <stop offset="0.506" stop-color="#1ee700"/>
      <stop offset="0.729" stop-color="#1edb00"/>
      <stop offset="0.95" stop-color="#1ec700"/>
      <stop offset="1" stop-color="#1ec200"/>
    </linearGradient>
  </defs>
  <path id="Trazado_35" data-name="Trazado 35" d="M48.357,2559.862l-3.622,2.3-.638-.532c-.305-.254-7.474-6.465-7.474-26.885a45.459,45.459,0,0,1,2.146-13.852c-2.781-2.929-3.5-5.566-4.389-8.857-.238-.878-.485-1.784-.79-2.776a53.594,53.594,0,0,0-2.039-5.516l-.52-1.158,1.207-.393a20.928,20.928,0,0,1,6.483-1.07,19.007,19.007,0,0,1,12.9,5.09,43.008,43.008,0,0,1,27.9,0,19.012,19.012,0,0,1,12.9-5.09,20.927,20.927,0,0,1,6.482,1.07l1.207.393-.52,1.158a53.589,53.589,0,0,0-2.039,5.516c-.305.992-.552,1.9-.79,2.776-.892,3.291-1.608,5.928-4.389,8.857a45.457,45.457,0,0,1,2.146,13.852c0,20.42-7.169,26.631-7.474,26.885l-.638.532-3.622-2.3-3.207,2.438-.7-.8a17.6,17.6,0,0,1-2.929-4.734,44.369,44.369,0,0,1-20.749,0,17.6,17.6,0,0,1-2.929,4.734l-.7.8Z" transform="translate(-29.394 -2499.925)" fill="url(#linear-gradient)"/>
  <path id="Trazado_36" data-name="Trazado 36" d="M68.917,2536.487c2.616,0,7.737-2.968,9.754-7.464s-2.346-5.887-4.084-6.2a39.057,39.057,0,0,0-11.341,0c-1.738.318-6.095,1.723-4.084,6.2S66.3,2536.487,68.917,2536.487Z" transform="translate(-32.743 -2502.404)" fill="#afff6a"/>
  <path id="Trazado_37" data-name="Trazado 37" d="M71.088,2519.367a38.4,38.4,0,0,0-11.254,0c-1.087.2-3.737.889-4.856,3.018a4.979,4.979,0,0,0,.115,4.506c2.171,4.839,7.5,7.81,10.368,7.81s8.2-2.971,10.368-7.81a4.982,4.982,0,0,0,.115-4.506C74.825,2520.256,72.175,2519.565,71.088,2519.367Zm2.657,6.589c-1.8,4.008-6.386,6.461-8.284,6.461s-6.486-2.453-8.284-6.461a2.846,2.846,0,0,1-.178-2.507c.533-1.013,2.026-1.612,3.245-1.835a40.925,40.925,0,0,1,5.206-.377,40.944,40.944,0,0,1,5.228.377c1.219.223,2.712.822,3.245,1.835A2.846,2.846,0,0,1,73.745,2525.955Zm25.471-24.981a22.122,22.122,0,0,0-6.851-1.127,20.272,20.272,0,0,0-13.189,4.944,44.327,44.327,0,0,0-27.431,0,20.266,20.266,0,0,0-13.189-4.944,22.122,22.122,0,0,0-6.851,1.127l-2.419.789,1.044,2.321a52.255,52.255,0,0,1,1.994,5.395c.3.975.545,1.874.781,2.745.853,3.145,1.6,5.9,4.215,8.862a46.719,46.719,0,0,0-2.008,13.592c0,8.683,1.257,15.922,3.735,21.518,1.931,4.357,3.942,6.114,4.166,6.3l1.278,1.065,1.407-.89,2.257-1.43,1.734,1.319,1.695,1.288,1.4-1.6a19.638,19.638,0,0,0,2.757-4.17,45.569,45.569,0,0,0,19.43,0,19.591,19.591,0,0,0,2.758,4.17l1.4,1.6,1.694-1.288,1.734-1.319,2.257,1.43,1.407.89,1.278-1.065c.224-.187,2.235-1.943,4.166-6.3,2.477-5.6,3.734-12.835,3.734-21.518a46.721,46.721,0,0,0-2.007-13.592c2.613-2.958,3.362-5.719,4.216-8.863.236-.87.479-1.769.78-2.744a52.434,52.434,0,0,1,1.994-5.4l1.041-2.32Zm-3.893,7.495c-.318,1.031-.569,1.959-.812,2.856-.758,2.793-1.317,4.833-3.055,6.99a37.805,37.805,0,0,0-4.022-7.8,11.893,11.893,0,0,1,5.144-4.049L91.6,2504.4c-5.352,2.519-6.54,5.692-6.588,5.825l-.211.592.384.5a41,41,0,0,1,6.992,23.365c0,15.908-4.52,22.7-6.117,24.6l-3.476-2.2-2.788,2.121a11.034,11.034,0,0,1-1.828-3.011c.963-.282,1.922-.586,2.871-.933l-.786-2.145a42.328,42.328,0,0,1-29.191,0l-.786,2.145c.949.347,1.907.652,2.871.933a11.055,11.055,0,0,1-1.828,3.011l-2.789-2.121-3.484,2.207c-1.6-1.874-6.11-8.57-6.11-24.6a41,41,0,0,1,6.992-23.364l.387-.5-.212-.592c-.048-.134-1.237-3.307-6.589-5.825l-.973,2.066a11.914,11.914,0,0,1,5.145,4.048,37.8,37.8,0,0,0-4.023,7.8c-1.74-2.157-2.3-4.2-3.055-6.99-.244-.9-.5-1.826-.813-2.856-.586-1.9-1.212-3.545-1.635-4.588a16.631,16.631,0,0,1,16.365,4.288l.52.587.734-.275a40.719,40.719,0,0,1,27.756,0l.732.271.52-.582a16.635,16.635,0,0,1,16.367-4.29C96.535,2504.925,95.909,2506.565,95.323,2508.469Zm-31.286,15.865v1.021a1.8,1.8,0,0,1-3.59,0v-1.021a1.8,1.8,0,0,1,3.59,0Zm-9.8-5.6a2.513,2.513,0,1,1-2.513-2.513A2.513,2.513,0,0,1,54.233,2518.738Zm16.087,5.6v1.021a1.8,1.8,0,0,1-3.59,0v-1.021a1.8,1.8,0,0,1,3.59,0Zm11.4-5.6a2.513,2.513,0,1,1-2.513-2.513A2.513,2.513,0,0,1,81.716,2518.738Z" transform="translate(-29.287 -2499.847)" fill="#004b40"/>
</svg>
