<svg id="Oink-M" xmlns="http://www.w3.org/2000/svg" xmlns:xlink="http://www.w3.org/1999/xlink" width="72.35" height="77.066" viewBox="0 0 72.35 77.066">
  <defs>
    <linearGradient id="linear-gradient" x1="0.5" y1="0.328" x2="0.5" y2="0.942" gradientUnits="objectBoundingBox">
      <stop offset="0.28" stop-color="#00eb00"/>
      <stop offset="0.51" stop-color="#00e700"/>
      <stop offset="0.73" stop-color="#00db00"/>
      <stop offset="0.95" stop-color="#00c800"/>
      <stop offset="1" stop-color="#00c200"/>
    </linearGradient>
  </defs>
  <g id="Capa_1" data-name="Capa 1">
    <path id="Trazado_2326" data-name="Trazado 2326" d="M53.659,73.071l-3.152,2.393-.706-.707a14.964,14.964,0,0,1-2.966-4.467,49.038,49.038,0,0,1-10.357.917A44.415,44.415,0,0,1,26.222,70a14.358,14.358,0,0,1-3.105,4.755l-.706.707-3.152-2.393-3.882,2.463-.606-.987c-.264-.489-7.181-12.066-7.181-32.265a72.962,72.962,0,0,1,3.051-19.423C7.435,19.58,6.379,15.944,5.292,12.114c-.233-.816-.466-1.663-.73-2.517A54.994,54.994,0,0,0,2.528,4.08L2,2.931l1.2-.4A20.948,20.948,0,0,1,9.67,1.47,18.99,18.99,0,0,1,22.558,6.543a41.617,41.617,0,0,1,13.92-2.331A41.694,41.694,0,0,1,50.406,6.543,18.959,18.959,0,0,1,63.278,1.47a20.87,20.87,0,0,1,6.467,1.064l1.2.4-.512,1.15A52.554,52.554,0,0,0,68.394,9.6c-.264.855-.5,1.7-.73,2.517-1.087,3.83-2.112,7.466-5.349,10.729a72.961,72.961,0,0,1,3.051,19.423c0,20.2-6.917,31.8-7.212,32.289l-.606.987Z" transform="translate(-0.303 -0.223)" fill="url(#linear-gradient)"/>
    <path id="Trazado_2327" data-name="Trazado 2327" d="M44.492,40.928c2.723,0,8.05-3.088,10.179-7.77S52.229,27.033,50.43,26.7a45.164,45.164,0,0,0-5.938-.433,45.163,45.163,0,0,0-5.938.433c-1.807.331-6.337,1.79-4.241,6.455S41.769,40.928,44.492,40.928Z" transform="translate(-8.318 -6.176)" fill="#7fff5d"/>
    <path id="Trazado_2328" data-name="Trazado 2328" d="M69.934,1.13A22.129,22.129,0,0,0,63.082,0h0a20.266,20.266,0,0,0-13.2,4.942,44.359,44.359,0,0,0-27.437,0A20.266,20.266,0,0,0,9.268,0,22.168,22.168,0,0,0,2.416,1.13L0,1.917,1.044,4.256a53.182,53.182,0,0,1,2,5.378c.257.842.5,1.684.725,2.5,1.083,3.812,2.1,7.428,5.191,10.772A73.683,73.683,0,0,0,6.025,42.091c0,20.562,7.109,32.488,7.413,32.987l1.208,1.988,1.964-1.247,2.26-1.426L20.6,75.71l1.6,1.216L23.61,75.5a16.517,16.517,0,0,0,2.97-4.248,45.817,45.817,0,0,0,9.6,1.021,52.792,52.792,0,0,0,9.72-.779,16.509,16.509,0,0,0,2.845,3.983L50.151,76.9l1.559-1.216,1.73-1.317L55.7,75.8l1.98,1.247,1.208-1.988c.351-.5,7.436-12.425,7.436-32.964a73.683,73.683,0,0,0-2.931-19.159c3.118-3.344,4.116-6.961,5.191-10.772.226-.818.468-1.66.725-2.5a54.7,54.7,0,0,1,2-5.4L72.35,1.917ZM65.124,12.175c-.779,3.118-1.458,5.675-3.726,8.153-1.419-4.591-2.806-8.036-3.336-9.291.452-.779,1.824-2.588,5.23-4.186l-.935-2.066c-5.347,2.518-6.54,5.69-6.586,5.823l-.156.429.187.413c.07.164,7.132,16.462,7.132,30.843,0,16.244-4.677,26.954-6.353,30.181l-3.235-2.05-2.79,2.12a10.851,10.851,0,0,1-1.832-3.009c.967-.281,1.925-.585,2.868-.935l-.779-2.144a42.356,42.356,0,0,1-29.2,0L20.835,68.6c.943.351,1.9.655,2.868.935a10.851,10.851,0,0,1-1.879,3.009l-2.783-2.12L15.808,72.49c-1.637-3.219-6.353-13.9-6.353-30.181,0-14.381,7.062-30.68,7.132-30.843l.187-.413-.156-.429c-.047-.133-1.232-3.3-6.586-5.823l-.974,2.05c3.414,1.606,4.786,3.43,5.23,4.178-.53,1.255-1.917,4.677-3.336,9.3-2.268-2.479-2.923-5.02-3.726-8.153-.273-1.06-.553-2.151-.912-3.321C5.729,6.945,5.1,5.308,4.677,4.264a16.657,16.657,0,0,1,16.369,4.31l.514.585.74-.273a40.7,40.7,0,0,1,27.757,0l.733.273.522-.585A16.86,16.86,0,0,1,67.681,4.287c-.421,1.044-1.044,2.681-1.637,4.591C65.678,10.024,65.4,11.115,65.124,12.175Z" transform="translate(0 0)" fill="#004a3d"/>
    <path id="Trazado_2329" data-name="Trazado 2329" d="M28.291,26.78a2.74,2.74,0,1,0-2.731-2.74,2.74,2.74,0,0,0,2.731,2.74Z" transform="translate(-5.768 -4.8)" fill="#004a3d"/>
    <path id="Trazado_2332" data-name="Trazado 2332" d="M63.511,26.78a2.74,2.74,0,1,0-2.731-2.74,2.74,2.74,0,0,0,2.731,2.74Z" transform="translate(-13.717 -4.8)" fill="#004a3d"/>
    <path id="Trazado_2333" data-name="Trazado 2333" d="M42.268,29.46a1.917,1.917,0,0,0-1.909,1.909v1.094a1.909,1.909,0,1,0,3.809,0V31.369a1.917,1.917,0,0,0-1.9-1.909Z" transform="translate(-9.041 -6.627)" fill="#004a3d"/>
    <path id="Trazado_2334" data-name="Trazado 2334" d="M55.684,28.542c-1.222-2.316-4.106-3.071-5.285-3.283a41.941,41.941,0,0,0-12.249,0c-1.179.212-4.063.967-5.285,3.283a5.387,5.387,0,0,0,.127,4.912c2.358,5.268,8.161,8.483,11.282,8.483S53.2,38.7,55.557,33.454A5.387,5.387,0,0,0,55.684,28.542Zm-2.426,3.885c-1.96,4.36-6.947,7.032-9.017,7.032s-7.058-2.672-9.017-7.032a3.139,3.139,0,0,1-.2-2.731c.585-1.094,2.206-1.747,3.537-1.993a43.89,43.89,0,0,1,5.667-.407,43.914,43.914,0,0,1,5.684.407c1.332.246,2.952.9,3.537,1.993A3.113,3.113,0,0,1,53.258,32.428Z" transform="translate(-8.1 -5.91)" fill="#004a3d"/>
    <path id="Trazado_2335" data-name="Trazado 2335" d="M49.882,29.46A1.917,1.917,0,0,0,48,31.369v1.094a1.909,1.909,0,1,0,3.809,0V31.369A1.917,1.917,0,0,0,49.882,29.46Z" transform="translate(-10.753 -6.627)" fill="#004a3d"/>
  </g>
</svg>
