<svg id="OinkPolicia" xmlns="http://www.w3.org/2000/svg" width="72.35" height="85.118" viewBox="0 0 72.35 85.118">
  <g id="Layer_1" data-name="Layer 1">
    <g id="Oink" transform="translate(0 7.823)">
      <path id="_Path_" data-name="&lt;Path&gt;" d="M49.381,84.5,46.49,86.7l-.648-.65a13.213,13.213,0,0,1-2.848-4.374,40.489,40.489,0,0,1-18.813,0,13.213,13.213,0,0,1-2.848,4.374l-.648.65-2.891-2.2-3.689,2.344-.42-1.129a91.479,91.479,0,0,1-6.558-33.4A81.007,81.007,0,0,1,10.217,32.3c-3.126-3.152-4.194-6.8-5.319-10.657l-.548-1.83a50.94,50.94,0,0,0-1.866-5.068L2,13.684l1.1-.357a19.16,19.16,0,0,1,5.932-.986,17.4,17.4,0,0,1,11.813,4.682,38.066,38.066,0,0,1,12.767-2.144A38.137,38.137,0,0,1,46.39,17.022,17.36,17.36,0,0,1,58.2,12.34a19.1,19.1,0,0,1,5.932.986l1.1.357-.47,1.065a47.929,47.929,0,0,0-1.873,5.068c-.185.622-.37,1.237-.541,1.837-1.132,3.852-2.2,7.5-5.319,10.657a79.818,79.818,0,0,1,3.083,20.013,91.73,91.73,0,0,1-6.544,33.393l-.5,1.1Z" transform="translate(-0.562 -11.29)" fill="#8bed8c"/>
      <path id="_Compound_Path_" data-name="&lt;Compound Path&gt;" d="M63.913,11.917a20.159,20.159,0,0,0-6.262-1.037,18.483,18.483,0,0,0-12.06,4.532,40.4,40.4,0,0,0-25.075,0A18.483,18.483,0,0,0,8.463,10.88a20.2,20.2,0,0,0-6.255,1.037L0,12.631l.955,2.145a49.441,49.441,0,0,1,1.824,4.94c.185.608.363,1.222.541,1.823C4.438,25.349,5.5,28.974,8.484,32.2a81.053,81.053,0,0,0-2.978,19.71A90.87,90.87,0,0,0,12.16,85.765l.983,2.216,2.037-1.3,2.066-1.308,1.581,1.208,1.46,1.115,1.289-1.308a15.149,15.149,0,0,0,2.714-3.9,41.522,41.522,0,0,0,17.538,0,15.15,15.15,0,0,0,2.714,3.9l1.289,1.308,1.425-1.115,1.581-1.208,2.066,1.308,2.037,1.3.983-2.216a90.87,90.87,0,0,0,6.653-33.857A79.7,79.7,0,0,0,57.6,32.2c2.985-3.224,4.046-6.849,5.165-10.659.178-.6.356-1.215.541-1.823a49.441,49.441,0,0,1,1.824-4.954l.955-2.145Zm-4.274,9.708c-.9,3.188-1.617,5.783-3.79,8.193-1.218-4.289-2.379-7.6-2.8-8.757a10.581,10.581,0,0,1,4.794-3.86l-.855-1.894c-4.887,2.309-5.977,5.219-6.019,5.34l-.128.365.135.357c.064.179,6.54,17.565,6.54,30.783A90.76,90.76,0,0,1,51.6,83.606L48.754,81.8,46.2,83.742a10.065,10.065,0,0,1-1.674-2.759c.883-.265,1.76-.543,2.621-.858l-.712-1.966a38.581,38.581,0,0,1-26.685,0l-.712,1.966c.862.315,1.738.593,2.622.858a10.064,10.064,0,0,1-1.717,2.759L17.4,81.8l-2.849,1.809A90.638,90.638,0,0,1,8.641,52.151c0-13.218,6.475-30.6,6.54-30.783l.135-.357-.128-.365c-.043-.122-1.126-3.031-6.019-5.34L8.278,17.2a10.584,10.584,0,0,1,4.794,3.86c-.42,1.158-1.574,4.432-2.8,8.757-2.173-2.416-2.885-5-3.761-8.193-.228-.829-.47-1.694-.712-2.588-.563-1.744-1.14-3.253-1.524-4.211a15.186,15.186,0,0,1,14.96,3.932l.47.543.677-.257a36.1,36.1,0,0,1,12.68-2.23,36.173,36.173,0,0,1,12.687,2.23l.67.257.477-.543a15.371,15.371,0,0,1,14.96-3.932c-.385.958-.955,2.466-1.5,4.211-.278.894-.52,1.759-.748,2.588Z" transform="translate(0 -10.88)" fill="#004a3d"/>
      <path id="_Path_2" data-name="&lt;Path&gt;" d="M27.3,71.81l-2.092.273c.51,3.875.762,6.838.884,8.506l-2.912-.927-2.157,2.315c-.856-1.546-2.4-4.487-4.177-8.484l-1.927.856a101.454,101.454,0,0,0,4.99,9.936l.719,1.2,3.178-3.408,4.544,1.438-.065-1.5C28.286,81.861,28.114,78.036,27.3,71.81Z" transform="translate(-4.316 -28.305)" fill="#004a3d"/>
      <path id="_Path_3" data-name="&lt;Path&gt;" d="M27.875,37.365a2.322,2.322,0,1,0-2.315-2.286A2.322,2.322,0,0,0,27.875,37.365Z" transform="translate(-7.365 -17.112)" fill="#004a3d"/>
      <path id="_Path_4" data-name="&lt;Path&gt;" d="M63.106,37.365a2.322,2.322,0,1,0-2.286-2.286A2.322,2.322,0,0,0,63.106,37.365Z" transform="translate(-17.524 -17.113)" fill="#004a3d"/>
      <path id="_Path_5" data-name="&lt;Path&gt;" d="M64.451,79.661l-2.876.927c.115-1.668.374-4.63.884-8.506l-2.092-.273c-.82,6.226-.985,10.066-.992,10.21l-.065,1.5,4.544-1.438L67,85.485l.719-1.2a97.661,97.661,0,0,0,4.99-9.936l-1.92-.856c-1.776,4-3.329,6.938-4.177,8.52Z" transform="translate(-17.158 -28.305)" fill="#004a3d"/>
      <path id="_Path_6" data-name="&lt;Path&gt;" d="M42.858,50.144c2.308,0,6.823-2.617,8.628-6.586s-2.071-5.191-3.595-5.472a38.281,38.281,0,0,0-5.033-.367,38.28,38.28,0,0,0-5.033.367c-1.531.28-5.371,1.517-3.595,5.472S40.55,50.144,42.858,50.144Z" transform="translate(-9.798 -18.553)" fill="#7fff5d"/>
      <path id="_Compound_Path_2" data-name="&lt;Compound Path&gt;" d="M52.137,39.394c-1.035-1.963-3.494-2.61-4.479-2.783a39.25,39.25,0,0,0-5.2-.381,39.226,39.226,0,0,0-5.184.381c-1,.173-3.444.82-4.451,2.782a4.566,4.566,0,0,0,.108,4.156c2,4.465,6.917,7.19,9.563,7.19s7.564-2.739,9.563-7.19A4.566,4.566,0,0,0,52.137,39.394Zm-2.056,3.293c-1.661,3.7-5.889,5.96-7.643,5.96s-5.982-2.265-7.643-5.96a2.646,2.646,0,0,1-.137-2.308,4.363,4.363,0,0,1,3-1.7,37.2,37.2,0,0,1,4.8-.345,37.22,37.22,0,0,1,4.817.345,4.363,4.363,0,0,1,3,1.7A2.617,2.617,0,0,1,50.081,42.687Z" transform="translate(-9.406 -18.131)" fill="#004a3d"/>
      <path id="_Path_7" data-name="&lt;Path&gt;" d="M49.447,40.89a1.783,1.783,0,0,0-1.8,1.611v.942a1.8,1.8,0,0,0,3.595,0V42.5a1.783,1.783,0,0,0-1.8-1.611Z" transform="translate(-13.724 -19.443)" fill="#004a3d"/>
      <path id="_Path_8" data-name="&lt;Path&gt;" d="M42.084,40.89A1.438,1.438,0,0,0,40.646,42.5v.942a1.438,1.438,0,1,0,2.876,0V42.5a1.438,1.438,0,0,0-1.438-1.611Z" transform="translate(-11.7 -19.443)" fill="#004a3d"/>
    </g>
    <path id="Trazado_2336" data-name="Trazado 2336" d="M27.11,21.62h26.5L53.3,23.058H27.426Z" transform="translate(-7.876 -6.075)" fill="#004a3d"/>
    <path id="Trazado_2337" data-name="Trazado 2337" d="M27.11,21.62h26.5L53.3,23.058H27.426Z" transform="translate(-7.876 -6.075)" fill="#004a3d"/>
    <path id="Trazado_2338" data-name="Trazado 2338" d="M56.422,8.117V9.849l-2.394.554c-.144.036-.4.158-.446.3l-1.208,4.429H25.232l-1.165-4.4a.4.4,0,0,0-.266-.309L21.68,9.849V8.117c0-3.746,7.974-6.917,17.356-6.917S56.422,4.371,56.422,8.117Z" transform="translate(-6.343 -0.337)" fill="#004a3d"/>
    <path id="Trazado_2339" data-name="Trazado 2339" d="M56.422,8.117V9.849l-2.394.554c-.144.036-.4.158-.446.3l-1.208,4.429H25.232l-1.165-4.4a.4.4,0,0,0-.266-.309L21.68,9.849V8.117c0-3.746,7.974-6.917,17.356-6.917S56.422,4.371,56.422,8.117Z" transform="translate(-6.343 -0.337)" fill="#004a3d"/>
    <g id="_Group_" data-name="&lt;Group&gt;" transform="translate(14.599)">
      <path id="Trazado_2340" data-name="Trazado 2340" d="M38.733,0C28.545,0,20.65,3.422,20.65,7.779V9.843c0,.2,0,.352.165.4l2.157.582,1.1,4,.719,2.624.266.971c.755,2.617,7.291,4.026,13.517,4.026S51.344,21.009,52.1,18.421l.913-3.595,1.107-3.969,2.33-.6a.5.5,0,0,0,.4-.417V7.779C56.851,3.422,48.942,0,38.733,0ZM25.611,16.983l-.316-1.438H51.818L51.5,16.983Zm30.521-7.47-2.394.554c-.144.036-.4.158-.446.3L52.084,14.8H24.942l-1.165-4.4a.4.4,0,0,0-.266-.309l-2.121-.575V7.779c0-3.746,7.974-6.917,17.356-6.917S56.132,4.034,56.132,7.779Z" transform="translate(-20.65)" fill="#012d25"/>
    </g>
    <path id="Trazado_2341" data-name="Trazado 2341" d="M46.581,8.26a5.177,5.177,0,0,1-2.6,4.522,5.177,5.177,0,0,1-2.61-4.508,2.823,2.823,0,0,1,0-.345,6.1,6.1,0,0,0,2.61-.82,6.169,6.169,0,0,0,2.588.805A2.827,2.827,0,0,1,46.581,8.26Z" transform="translate(-11.893 -1.998)" fill="#ffb95c"/>
    <path id="Trazado_2342" data-name="Trazado 2342" d="M43.978,7.11v5.673a5.177,5.177,0,0,1-2.61-4.508,2.823,2.823,0,0,1,0-.345,6.1,6.1,0,0,0,2.61-.82Z" transform="translate(-11.883 -1.998)" fill="#fbb040"/>
    <path id="Trazado_2343" data-name="Trazado 2343" d="M43.954,12.853h0a5.292,5.292,0,0,1-2.667-4.594,1.969,1.969,0,0,1,0-.352V7.827h.05A6.255,6.255,0,0,0,43.954,7h0a6.191,6.191,0,0,0,2.581.805h.058v.058a2.943,2.943,0,0,1,0,.352,5.3,5.3,0,0,1-2.639,4.616Zm-2.56-4.9v.28a5.148,5.148,0,0,0,2.56,4.458,5.155,5.155,0,0,0,2.567-4.458,1.836,1.836,0,0,0,0-.28,6.413,6.413,0,0,1-2.567-.8A6.377,6.377,0,0,1,41.395,7.956Z" transform="translate(-11.87 -1.967)" fill="#fff"/>
    <path id="Trazado_2344" data-name="Trazado 2344" d="M85.866,59.9c.568,16.4-4.185,33.721-19.521,40.752C50.42,93.84,46.07,77.073,46.07,59.9V58.581h.23A43.068,43.068,0,0,0,65.943,53.85a43.139,43.139,0,0,0,19.679,4.717h.18C85.852,59.027,85.845,59.458,85.866,59.9Z" transform="translate(-13.561 -15.575)" fill="#ffb95c"/>
    <path id="Trazado_2345" data-name="Trazado 2345" d="M66.049,53.9l.316,46.806C50.4,93.8,46.089,77.174,46.14,59.975V58.631h.23a43.218,43.218,0,0,0,19.686-4.717Z" transform="translate(-13.352 -15.589)" fill="#fbb040"/>
    <path id="Trazado_2346" data-name="Trazado 2346" d="M84.27,63.411c.489,14.236-3.595,29.27-16.939,35.374-13.812-5.924-17.6-20.47-17.6-35.374v-1.15h.194A37.568,37.568,0,0,0,67.007,58.17a37.539,37.539,0,0,0,17.083,4.091h.158C84.256,62.649,84.256,63.023,84.27,63.411Z" transform="translate(-14.589 -16.789)" fill="none" stroke="#fff" stroke-width="2"/>
    <path id="Trazado_2347" data-name="Trazado 2347" d="M74.412,81.749h2.006V76.464a4.314,4.314,0,1,0-8.628,0V81.5H69.8V76.464a2.3,2.3,0,0,1,4.594,0Z" transform="translate(-19.515 -20.577)" fill="#eaf6f8"/>
    <path id="Trazado_2348" data-name="Trazado 2348" d="M67.79,76.477V81.51H69.8V76.477A2.294,2.294,0,0,1,72.09,74.2V72.17a4.314,4.314,0,0,0-4.3,4.307Z" transform="translate(-19.486 -20.582)" fill="#d2dadb"/>
    <rect id="Rect치ngulo_1993" data-name="Rect치ngulo 1993" width="10.864" height="10.864" rx="1.83" transform="translate(58.004 69.136) rotate(180)" fill="#003f33"/>
    <path id="Trazado_2349" data-name="Trazado 2349" d="M73.77,81.53V92.394h4.515a.92.92,0,0,0,.92-.92V82.443a.913.913,0,0,0-.92-.913Z" transform="translate(-21.213 -23.258)" fill="#004a3d"/>
    <circle id="Elipse_200" data-name="Elipse 200" cx="1.769" cy="1.769" r="1.769" transform="translate(50.817 61.056)" fill="#eaf6f8"/>
    <rect id="Rect치ngulo_1994" data-name="Rect치ngulo 1994" width="1.762" height="4.149" rx="0.78" transform="translate(53.474 66.962) rotate(180)" fill="#eaf6f8"/>
  </g>
</svg>
